<svg xmlns="http://www.w3.org/2000/svg" width="25" height="25" fill="none" viewBox="0 0 25 25"><path fill="#7CB342" d="M12.5 2.08331C6.77081 2.08331 2.08331 6.77081 2.08331 12.5C2.08331 18.2291 6.77081 22.9166 12.5 22.9166C18.2291 22.9166 22.9166 18.2291 22.9166 12.5C22.9166 6.77081 18.2291 2.08331 12.5 2.08331Z"/><path fill="#0277BD" d="M23.4375 12.5C23.4375 18.5938 18.4896 23.4375 12.5 23.4375C6.51042 23.4375 1.5625 18.5938 1.5625 12.5C1.5625 6.40625 6.40625 1.5625 12.5 1.5625C18.5938 1.5625 23.4375 6.40625 23.4375 12.5ZM12.3958 17.5521C12.3958 17.3438 12.2917 17.2396 12.0833 17.1354C11.4062 16.9271 10.7812 16.9271 10.2083 16.3542C10.1042 16.1458 10.1042 15.9375 10 15.6771C9.79167 15.4688 9.21875 15.3646 8.90625 15.2604H6.71875C6.40625 15.1562 6.14583 14.6875 5.9375 14.375C5.9375 14.2708 5.9375 14.0625 5.72917 14.0625C5.52083 13.9583 5.3125 14.1667 5.05208 14.0625C4.94792 13.9583 4.94792 13.8542 4.94792 13.75C4.94792 13.4375 5.15625 13.0729 5.36458 12.8646C5.67708 12.6562 6.04167 12.9687 6.35417 12.9687C6.45833 12.9687 6.45833 12.9688 6.5625 13.0729C6.875 13.1771 6.97917 13.5937 6.97917 13.9583V14.1667C6.97917 14.2708 7.08333 14.2708 7.1875 14.2708C7.29167 13.6979 7.29167 13.1771 7.39583 12.6042C7.39583 11.9271 8.07292 11.3021 8.59375 11.0937C8.80208 10.9896 8.90625 11.1979 9.16667 11.0937C9.84375 10.8854 11.4583 10.2083 11.1458 9.32292C10.9375 8.54167 10.2604 7.8125 9.375 7.91667C9.16667 8.02083 9.0625 8.125 8.85417 8.22917C8.54167 8.4375 7.86458 9.11458 7.55208 9.11458C6.97917 9.01042 6.97917 8.22917 7.13542 7.91667C7.23958 7.5 8.22917 6.04167 8.90625 6.30208L9.32292 6.71875C9.53125 6.82292 9.89583 6.82292 10.2083 6.82292C10.3125 6.82292 10.4167 6.82292 10.5208 6.71875C10.625 6.61458 10.625 6.61458 10.625 6.51042C10.625 6.19792 10.3125 5.83333 10.1042 5.625C9.89583 5.41667 9.53125 5.20833 9.21875 5.05208C8.125 4.73958 6.35417 5.15625 5.52083 5.9375C4.6875 6.71875 4.01042 8.02083 3.54167 9.11458C3.33333 9.79167 3.125 10.625 3.02083 11.4062C2.91667 11.9271 2.8125 12.3958 3.125 12.9167C3.4375 13.5937 4.11458 14.2188 4.79167 14.6875C5.20833 15 6.09375 15 6.5625 15.5729C6.875 15.9896 6.77083 16.5625 6.77083 17.0833C6.77083 17.7604 7.1875 18.2812 7.44792 18.8542C7.55208 19.1667 7.65625 19.6354 7.76042 19.9479C7.76042 20.0521 7.86458 20.7292 7.86458 20.8333C8.54167 21.1458 9.0625 21.5104 9.84375 21.7188C9.94792 21.7188 10.3646 21.0417 10.3646 20.9375C10.6771 20.625 10.9375 20.1562 11.25 19.9479C11.4583 19.8437 11.6667 19.7396 11.9271 19.5312C12.1354 19.3229 12.2396 18.8542 12.3438 18.5417C12.3958 18.2812 12.5 17.8646 12.3958 17.5521ZM12.6042 7.44792C12.7083 7.44792 12.8125 7.34375 13.0208 7.23958C13.3333 7.03125 13.6979 6.66667 14.0104 6.45833C14.3229 6.25 14.6875 5.88542 14.8958 5.67708C15.2083 5.46875 15.4687 5 15.5729 4.6875C15.6771 4.47917 15.9896 4.01042 15.8854 3.69792C15.7812 3.48958 15.2083 3.38542 15 3.28125C14.1146 3.07292 13.3854 2.96875 12.5 2.96875C12.1875 2.96875 11.7187 3.07292 11.6146 3.38542C11.5104 3.95833 11.9271 3.80208 12.3958 3.95833C12.3958 3.95833 12.5 4.84375 12.5 4.94792C12.6042 5.46875 12.2917 5.83333 12.2917 6.35417C12.2917 6.66667 12.2917 7.23958 12.5 7.44792H12.6042ZM21.7708 15.1042C21.875 14.8958 21.875 14.5312 21.9792 14.3229C22.0833 13.8021 22.0833 13.2292 22.0833 12.7083C22.0833 11.6146 21.9792 10.5208 21.6667 9.53125C21.4583 9.21875 21.3542 8.85417 21.25 8.54167C21.0417 7.96875 20.7292 7.44792 20.2604 7.03125C19.8438 6.45833 19.2708 4.94792 18.2812 5.41667C17.9687 5.52083 17.7604 5.9375 17.5 6.19792C17.2917 6.51042 17.0833 6.875 16.8229 7.1875C16.7187 7.29167 16.6146 7.5 16.7187 7.60417C16.7187 7.70833 16.8229 7.70833 16.9271 7.70833C17.1354 7.8125 17.2396 7.8125 17.4479 7.91667C17.5521 7.91667 17.6562 8.02083 17.5521 8.125C17.5521 8.125 17.5521 8.22917 17.4479 8.22917C16.9271 8.80208 16.3542 9.21875 15.8333 9.73958C15.7292 9.84375 15.625 10.0521 15.625 10.1562C15.625 10.2604 15.7292 10.2604 15.7292 10.3646C15.7292 10.4687 15.625 10.4687 15.5208 10.5729C15.3125 10.6771 15.1042 10.7812 14.9479 10.8854C14.8438 11.0937 14.9479 11.4583 14.8437 11.6667C14.7396 12.2396 14.4271 12.6562 14.1667 13.1771C13.9583 13.4896 13.8542 13.8542 13.6458 14.1667C13.6458 14.5833 13.5417 14.9479 13.75 15.2604C14.2708 16.0417 15.2604 15.5729 16.0417 15.9375C16.25 16.0417 16.4583 16.0417 16.6146 16.25C16.9271 16.5625 16.9271 17.1354 17.0312 17.4479C17.1354 17.8646 17.2396 18.3333 17.4479 18.75C17.5521 19.2708 17.7604 19.8438 17.8646 20.2604C18.8542 19.4792 19.7396 18.6458 20.3646 17.5521C21.1458 16.875 21.4583 15.9896 21.7708 15.1042Z"/></svg>